# xmcd
#
# Track frame offsets:
# 150
# 29382
# 44980
# 61084
# 82218
# 106472
# 112313
# 126661
# 143232
# 165299
# 184598
#
# Disc length: 2729 seconds
#
#
# Revision: 0
# Processed by: cddbd v1.5.2PL0 Copyright (c) Steve Scherf et al.
# Submitted via: FreeRIP 2.944 
#
DISCID=a50aa70b
DTITLE=Ray Cheong Trio - Live at No Black
DYEAR=2009
DGENRE=Blues+Funk+Rock
TTITLE0=Afraid
TTITLE1=Just a while
TTITLE2=Be the same
TTITLE3=Bowl of love
TTITLE4=Vultures ( John Mayer Cover )
TTITLE5=Interlude
TTITLE6=Everything
TTITLE7=Dreamt about You
TTITLE8=Little wing ( Jimi Hendrix Cover )
TTITLE9=What happens now
TTITLE10=Ain't no sunshine ( Bill Withers Cover )
EXTD=
EXTT0=
EXTT1=
EXTT2=
EXTT3=
EXTT4=
EXTT5=
EXTT6=
EXTT7=
EXTT8=
EXTT9=
EXTT10=
PLAYORDER=
